<svg version="1.1" xmlns="http://www.w3.org/2000/svg" width="1024" height="1024" viewBox="0 0 1024 1024">
<path d="M336.914 589.094l-89.512 229.759 225.788-93.483-136.274-136.274zM992.311 98.373l-28.648-28.648c-31.607-31.648-82.948-31.648-114.596 0l-57.298 57.298 143.244 143.285 57.298-57.298c31.689-31.648 31.689-82.99 0-114.635zM341.451 577.382l20.503-20.503 143.244 143.244 401.165-401.165-143.244-143.244 28.648-28.689-450.318 450.359zM836.264 905.041l-689.924 0.242 0.121-689.924 483.060-0.162 75.695-80.232h-599.925c-22.367 0-40.522 18.113-40.522 40.522v769.914c0 22.408 18.154 40.522 40.522 40.522h769.914c22.408 0 40.522-18.113 40.522-40.522v-569.655l-81.651 80.111 2.189 449.184z"></path>
</svg>
