<svg version="1.1" xmlns="http://www.w3.org/2000/svg" width="1024" height="1024" viewBox="0 0 1024 1024">
<path d="M192 512h192v64h-192v-64zM192 640h192v64h-192v-64zM192 768h192v64h-192v-64zM903.432 199.43l-142.864-142.862c-31.112-31.112-92.568-56.568-136.568-56.568h-480c-44 0-80 36-80 80v864c0 44 36 80 80 80h736c44 0 80-36 80-80v-608c0-44-25.456-105.458-56.568-136.57zM858.178 244.686c3.13 3.13 6.25 6.974 9.28 11.314h-163.458v-163.456c4.34 3.030 8.184 6.15 11.314 9.28l142.864 142.862zM896 944c0 8.672-7.328 16-16 16h-736c-8.672 0-16-7.328-16-16v-864c0-8.672 7.328-16 16-16h480c4.832 0 10.254 0.61 16 1.704v254.296h254.296c1.094 5.746 1.704 11.166 1.704 16v608zM576 704h188.792c-14.826 73.032-79.386 128-156.792 128-88.366 0-160-71.634-160-160 0-77.406 54.97-141.966 128-156.792v188.792zM672 448c88.366 0 160 71.634 160 160 0 10.958-1.108 21.66-3.208 32h-188.792v-188.792c10.34-2.1 21.042-3.208 32-3.208z"></path>
</svg>
