<svg version="1.1" xmlns="http://www.w3.org/2000/svg" width="1024" height="1024" viewBox="0 0 1024 1024">
<path d="M639.778 475.892h44.212l-51.012 226.178-66.326-318.010h-106.55l-77.114 318.010-57.816-318.010h-111.394l113.092 511.882h108.838l76.294-302.708 68.256 302.708h100.336l129.63-511.882h-170.446zM903.432 199.43l-142.864-142.862c-31.112-31.112-92.568-56.568-136.568-56.568h-480c-44 0-80 36-80 80v864c0 44 36 80 80 80h736c44 0 80-36 80-80v-608c0-44-25.456-105.458-56.568-136.57zM858.178 244.686c3.13 3.13 6.25 6.974 9.28 11.314h-163.458v-163.456c4.34 3.030 8.184 6.15 11.314 9.28l142.864 142.862zM896 944c0 8.672-7.328 16-16 16h-736c-8.672 0-16-7.328-16-16v-864c0-8.672 7.328-16 16-16h480c4.832 0 10.254 0.61 16 1.704v254.296h254.296c1.094 5.746 1.704 11.166 1.704 16v608z"></path>
</svg>
