<svg version="1.1" xmlns="http://www.w3.org/2000/svg" width="1024" height="1024" viewBox="0 0 1024 1024">
<path d="M384 611.446v-114.226c0-15.128 6.696-29.436 18.854-40.286 12.16-10.848 28.192-16.826 45.146-16.826v-57.11c-70.4 0-128 51.4-128 114.222v85.666c0 15.772-14.328 28.558-32 28.558h-32v57.11h32c17.674 0 32 12.79 32 28.558v85.676c0 62.814 57.6 114.214 128 114.214v-57.112c-16.954 0-32.988-5.976-45.146-16.826-12.158-10.852-18.854-25.154-18.854-40.278v-114.234c0-15.77-14.328-28.554-32-28.554 17.674 0.002 32-12.788 32-28.552zM640 668.554v114.234c0 15.124-6.696 29.426-18.854 40.278-12.158 10.85-28.19 16.826-45.146 16.826v57.112c70.402 0 128-51.4 128-114.214v-85.676c0-15.772 14.328-28.558 32-28.558h32v-57.11h-32c-17.672 0-32-12.79-32-28.558v-85.668c0-62.824-57.598-114.222-128-114.222v57.11c16.958 0 32.988 5.978 45.146 16.83 12.16 10.848 18.854 25.156 18.854 40.284v114.228c0 15.766 14.328 28.552 32 28.552-17.672-0.002-32 12.788-32 28.552zM903.432 199.43l-142.864-142.862c-31.112-31.112-92.568-56.568-136.568-56.568h-480c-44 0-80 36-80 80v864c0 44 36 80 80 80h736c44 0 80-36 80-80v-608c0-44-25.456-105.458-56.568-136.57zM858.178 244.686c3.13 3.13 6.25 6.974 9.28 11.314h-163.458v-163.456c4.34 3.030 8.184 6.15 11.314 9.28l142.864 142.862zM896 944c0 8.672-7.328 16-16 16h-736c-8.672 0-16-7.328-16-16v-864c0-8.672 7.328-16 16-16h480c4.832 0 10.254 0.61 16 1.704v254.296h254.296c1.094 5.746 1.704 11.166 1.704 16v608z"></path>
</svg>
