<svg version="1.1" xmlns="http://www.w3.org/2000/svg" width="1024" height="1024" viewBox="0 0 1024 1024">
<path d="M913.826 679.694c-66.684-104.204-181.078-150.064-255.51-102.434-6.428 4.116-12.334 8.804-17.744 13.982l-79.452-124.262 183.462-287.972c15.016-27.73 20.558-60.758 13.266-93.974-6.972-31.75-24.516-58.438-48.102-77.226l-12.278-7.808-217.468 340.114-217.47-340.114-12.276 7.806c-23.586 18.79-41.13 45.476-48.1 77.226-7.292 33.216-1.75 66.244 13.264 93.974l183.464 287.972-79.454 124.262c-5.41-5.178-11.316-9.868-17.744-13.982-74.432-47.63-188.826-1.77-255.51 102.434-66.68 104.2-60.398 227.286 14.032 274.914 74.43 47.632 188.824 1.77 255.508-102.432l164.286-257.87 164.288 257.872c66.684 104.202 181.078 150.064 255.508 102.432 74.428-47.63 80.71-170.716 14.030-274.914zM234.852 800.43c-30.018 46.904-68.534 69.726-94.572 75.446-0.004 0-0.004 0-0.004 0-8.49 1.868-20.294 3.010-28.324-2.128-8.898-5.694-14.804-20.748-15.8-40.276-1.616-31.644 9.642-68.836 30.888-102.034 30.014-46.906 68.53-69.726 94.562-75.444 8.496-1.866 20.308-3.010 28.336 2.126 8.898 5.694 14.802 20.75 15.798 40.272 1.618 31.65-9.64 68.84-30.884 102.038zM480 512c-17.672 0-32-14.328-32-32s14.328-32 32-32 32 14.328 32 32-14.328 32-32 32zM863.85 833.47c-0.996 19.528-6.902 34.582-15.8 40.276-8.030 5.138-19.834 3.996-28.324 2.128 0 0 0 0-0.004 0-26.040-5.718-64.554-28.542-94.572-75.446-21.244-33.198-32.502-70.388-30.884-102.038 0.996-19.522 6.9-34.578 15.798-40.272 8.028-5.136 19.84-3.992 28.336-2.126 26.034 5.716 64.548 28.538 94.562 75.444 21.246 33.198 32.502 70.39 30.888 102.034z"></path>
</svg>
