<svg version="1.1" xmlns="http://www.w3.org/2000/svg" width="1024" height="1024" viewBox="0 0 1024 1024">
<path d="M672 896h-320c-17.672 0-32-14.326-32-32v-352h-128c-12.942 0-24.612-7.796-29.564-19.754-4.954-11.958-2.214-25.722 6.936-34.874l320-320c12.498-12.496 32.758-12.496 45.254 0l320 320c9.152 9.152 11.89 22.916 6.938 34.874s-16.62 19.754-29.564 19.754h-128v352c0 17.674-14.326 32-32 32zM384 832h256v-352c0-17.672 14.326-32 32-32h82.744l-242.744-242.746-242.744 242.746h82.744c17.672 0 32 14.328 32 32v352z"></path>
</svg>
