<?xml version="1.0" standalone="no"?>
<!DOCTYPE svg PUBLIC "-//W3C//DTD SVG 20010904//EN"
 "http://www.w3.org/TR/2001/REC-SVG-20010904/DTD/svg10.dtd">
<svg version="1.0" xmlns="http://www.w3.org/2000/svg"
 width="1280px" height="648px" viewBox="0 0 1280 648"
 preserveAspectRatio="xMidYMid meet">
<metadata>
Created by potrace 1.15, written by Peter Selinger 2001-2017
</metadata>
<g transform="translate(0,648) scale(0.1,-0.1)"
fill="#fafafa" stroke="none">
<path fill="#f4f4f4" d="M140 6474 c0 -4 82 -141 182 -305 l181 -299 226 -2 226 -2 -250 -6
c-137 -4 -352 -8 -477 -9 l-228 -1 0 -60 0 -60 434 0 434 0 31 -50 c17 -28 31
-55 31 -60 0 -5 -27 -10 -61 -12 l-61 -3 -299 -492 -300 -491 292 -484 c161
-265 299 -491 307 -500 12 -15 36 -18 142 -20 l128 -3 -102 -170 -102 -170
-437 -3 -437 -2 0 -65 0 -65 471 2 471 3 143 235 142 235 395 3 396 2 297 492
c164 270 299 498 301 507 1 9 -131 234 -294 501 l-297 485 -469 5 -470 5 -68
113 c-37 62 -68 115 -68 117 0 3 103 5 229 5 l228 0 65 108 c36 59 122 200
191 315 l127 207 -825 0 c-454 0 -825 -3 -825 -6z"/>
<path d="M3892 6441 c13 -21 109 -180 213 -354 l190 -316 435 -1 435 0 200
331 c255 423 233 379 193 379 -33 0 -35 -4 -228 -325 l-195 -324 -400 -1 -400
0 -199 325 c-198 324 -199 325 -233 325 l-34 0 23 -39z"/>
<path d="M5646 6407 c-25 -41 -46 -80 -46 -88 1 -8 72 -129 159 -269 l158
-255 324 -3 325 -2 157 259 c86 143 157 266 157 273 0 7 -20 45 -44 83 l-43
70 -551 3 -550 2 -46 -73z"/>
<path d="M6981 6279 c-94 -154 -121 -205 -115 -219 5 -10 115 -191 244 -403
l235 -386 387 -1 386 0 26 -45 27 -45 134 0 c85 0 135 -4 135 -10 0 -6 -52
-95 -114 -200 l-115 -189 307 -505 307 -506 619 2 620 3 298 490 c164 270 300
497 303 507 4 10 -92 177 -265 462 -148 245 -270 451 -270 456 0 5 104 182
231 392 127 211 233 386 236 391 2 4 -29 7 -69 7 l-74 0 -205 -340 -204 -339
-610 -3 -609 -3 -151 -247 -150 -248 -92 0 c-51 0 -93 2 -93 4 0 3 104 175
232 383 127 208 231 383 231 388 0 6 -54 98 -120 205 l-120 195 -592 3 -592 2
11 -22 11 -23 -17 23 c-16 21 -23 22 -148 22 l-131 0 -124 -201z m599 141 c6
-11 8 -20 6 -20 -3 0 -10 9 -16 20 -6 11 -8 20 -6 20 3 0 10 -9 16 -20z m-160
-10 c6 -11 8 -20 6 -20 -3 0 -10 9 -16 20 -6 11 -8 20 -6 20 3 0 10 -9 16 -20z
m190 -40 c6 -11 8 -20 6 -20 -3 0 -10 9 -16 20 -6 11 -8 20 -6 20 3 0 10 -9
16 -20z m-160 -10 c6 -11 8 -20 6 -20 -3 0 -10 9 -16 20 -6 11 -8 20 -6 20 3
0 10 -9 16 -20z m190 -40 c6 -11 8 -20 6 -20 -3 0 -10 9 -16 20 -6 11 -8 20
-6 20 3 0 10 -9 16 -20z m30 -50 c6 -11 8 -20 6 -20 -3 0 -10 9 -16 20 -6 11
-8 20 -6 20 3 0 10 -9 16 -20z m-140 -40 c6 -11 8 -20 6 -20 -3 0 -10 9 -16
20 -6 11 -8 20 -6 20 3 0 10 -9 16 -20z m170 -10 c6 -11 8 -20 6 -20 -3 0 -10
9 -16 20 -6 11 -8 20 -6 20 3 0 10 -9 16 -20z m-140 -40 c6 -11 8 -20 6 -20
-3 0 -10 9 -16 20 -6 11 -8 20 -6 20 3 0 10 -9 16 -20z m170 -10 c6 -11 8 -20
6 -20 -3 0 -10 9 -16 20 -6 11 -8 20 -6 20 3 0 10 -9 16 -20z m-140 -40 c6
-11 8 -20 6 -20 -3 0 -10 9 -16 20 -6 11 -8 20 -6 20 3 0 10 -9 16 -20z m30
-50 c6 -11 8 -20 6 -20 -3 0 -10 9 -16 20 -6 11 -8 20 -6 20 3 0 10 -9 16 -20z
m60 -100 c6 -11 8 -20 6 -20 -3 0 -10 9 -16 20 -6 11 -8 20 -6 20 3 0 10 -9
16 -20z m190 -40 c6 -11 8 -20 6 -20 -3 0 -10 9 -16 20 -6 11 -8 20 -6 20 3 0
10 -9 16 -20z m30 -50 c6 -11 8 -20 6 -20 -3 0 -10 9 -16 20 -6 11 -8 20 -6
20 3 0 10 -9 16 -20z m-140 -40 c6 -11 8 -20 6 -20 -3 0 -10 9 -16 20 -6 11
-8 20 -6 20 3 0 10 -9 16 -20z m170 -10 c6 -11 8 -20 6 -20 -3 0 -10 9 -16 20
-6 11 -8 20 -6 20 3 0 10 -9 16 -20z m-140 -40 c6 -11 8 -20 6 -20 -3 0 -10 9
-16 20 -6 11 -8 20 -6 20 3 0 10 -9 16 -20z m170 -10 c6 -11 8 -20 6 -20 -3 0
-10 9 -16 20 -6 11 -8 20 -6 20 3 0 10 -9 16 -20z m-140 -40 c6 -11 8 -20 6
-20 -3 0 -10 9 -16 20 -6 11 -8 20 -6 20 3 0 10 -9 16 -20z m190 -40 c6 -11 8
-20 6 -20 -3 0 -10 9 -16 20 -6 11 -8 20 -6 20 3 0 10 -9 16 -20z m-160 -10
c6 -11 8 -20 6 -20 -3 0 -10 9 -16 20 -6 11 -8 20 -6 20 3 0 10 -9 16 -20z
m2140 16 c0 -2 -56 -95 -124 -207 l-124 -204 -556 -3 c-306 -1 -556 0 -556 4
0 6 227 382 242 402 8 9 133 12 564 12 305 0 554 -2 554 -4z m-2110 -66 c6
-11 8 -20 6 -20 -3 0 -10 9 -16 20 -6 11 -8 20 -6 20 3 0 10 -9 16 -20z m190
-40 c6 -11 8 -20 6 -20 -3 0 -10 9 -16 20 -6 11 -8 20 -6 20 3 0 10 -9 16 -20z
m2265 -420 c131 -217 240 -398 242 -403 3 -4 -122 -216 -277 -472 l-282 -465
-572 0 -572 0 -282 466 -283 466 120 197 119 196 633 3 634 2 130 215 c98 161
133 211 141 202 6 -7 118 -190 249 -407z m-2235 370 c6 -11 8 -20 6 -20 -3 0
-10 9 -16 20 -6 11 -8 20 -6 20 3 0 10 -9 16 -20z m-160 -10 c6 -11 8 -20 6
-20 -3 0 -10 9 -16 20 -6 11 -8 20 -6 20 3 0 10 -9 16 -20z m190 -40 c6 -11 8
-20 6 -20 -3 0 -10 9 -16 20 -6 11 -8 20 -6 20 3 0 10 -9 16 -20z m-140 -40
c6 -11 8 -20 6 -20 -3 0 -10 9 -16 20 -6 11 -8 20 -6 20 3 0 10 -9 16 -20z
m170 -10 c6 -11 8 -20 6 -20 -3 0 -10 9 -16 20 -6 11 -8 20 -6 20 3 0 10 -9
16 -20z m-140 -40 c6 -11 8 -20 6 -20 -3 0 -10 9 -16 20 -6 11 -8 20 -6 20 3
0 10 -9 16 -20z m30 -50 c6 -11 8 -20 6 -20 -3 0 -10 9 -16 20 -6 11 -8 20 -6
20 3 0 10 -9 16 -20z m30 -50 c6 -11 8 -20 6 -20 -3 0 -10 9 -16 20 -6 11 -8
20 -6 20 3 0 10 -9 16 -20z"/>
<path d="M2540 5923 c-146 -240 -264 -440 -263 -443 1 -4 120 -201 264 -439
l262 -431 531 0 531 1 263 436 264 436 -171 281 c-93 155 -212 351 -264 436
l-94 155 -529 3 -529 2 -265 -437z m1528 -36 l244 -404 -243 -401 -242 -402
-492 0 -491 0 -243 402 -242 401 243 403 243 404 490 0 490 0 243 -403z"/>
<path d="M10637 6173 c-76 -124 -329 -537 -333 -544 -2 -3 84 -147 190 -320
l194 -314 196 -3 c108 -1 196 -4 196 -7 0 -2 -20 -38 -46 -79 l-45 -75 240
-393 240 -393 -315 -3 -315 -2 -43 -68 c-23 -37 -75 -121 -115 -187 l-73 -120
-567 3 -566 2 -34 -57 c-19 -32 -50 -82 -69 -112 l-34 -53 -25 41 -24 41 -295
0 c-162 0 -294 2 -294 5 0 2 19 35 41 72 23 38 43 71 45 74 2 3 -162 278 -365
610 l-368 604 -326 3 c-183 1 -327 6 -327 11 0 5 -101 175 -224 378 l-224 368
-459 3 -458 2 -62 -102 c-34 -57 -72 -114 -84 -128 l-21 -25 15 26 c14 24 14
29 1 45 -9 11 -12 13 -8 5 5 -9 3 -12 -5 -7 -6 4 -9 12 -6 17 4 5 -22 56 -57
114 l-63 105 -567 0 -568 0 -30 -47 c-16 -27 -28 -54 -25 -60 2 -7 0 -12 -5
-10 -13 3 -402 -642 -394 -655 4 -6 3 -8 -4 -5 -6 4 -30 -27 -57 -73 l-46 -79
26 -46 c15 -25 32 -42 37 -38 7 3 8 1 4 -5 -9 -15 384 -663 397 -655 6 3 7 1
3 -5 -9 -16 43 -104 56 -95 7 3 8 1 4 -6 -4 -6 2 -27 14 -46 l22 -35 566 0
567 1 90 151 c50 83 89 157 89 165 -1 7 2 10 7 7 5 -3 16 10 25 29 17 35 17
35 -21 98 -21 35 -45 74 -53 87 -8 12 -12 22 -9 22 3 0 25 -33 50 -72 110
-181 107 -177 160 -177 26 -1 47 -3 47 -5 0 -2 -61 -104 -136 -227 -75 -122
-138 -228 -141 -235 -4 -10 649 -1095 719 -1197 l19 -27 235 0 c129 0 234 -2
234 -5 0 -3 -12 -23 -26 -45 l-26 -40 -282 -2 -281 -3 -297 -490 c-164 -269
-297 -494 -297 -500 0 -5 21 -46 48 -89 l49 -80 -65 -105 c-35 -58 -68 -110
-73 -115 -5 -5 -24 16 -45 50 -20 32 -76 121 -123 197 l-87 138 -444 0 c-245
0 -448 -4 -453 -9 -4 -4 -106 -168 -227 -364 l-218 -356 197 -323 198 -324
500 -3 501 -2 18 30 c22 37 27 37 50 0 14 -24 24 -30 51 -30 l33 0 -26 43
c-53 85 -54 74 21 199 37 62 108 178 156 256 48 79 88 149 88 154 0 6 -36 69
-80 140 -44 72 -80 132 -80 134 0 7 142 235 145 232 1 -2 107 -175 234 -385
l233 -383 580 0 c463 0 578 -3 570 -12 -5 -7 -60 -95 -121 -195 l-111 -183 39
0 39 0 118 192 c77 125 118 202 119 222 1 27 112 219 261 453 l34 53 657 2
656 3 271 447 271 447 380 1 380 0 194 320 193 320 403 0 403 0 241 395 241
395 -239 392 -240 393 317 5 317 5 187 305 187 305 1 174 0 174 -187 308 -188
309 -290 0 -290 1 -144 239 c-80 133 -148 237 -154 233 -6 -3 -7 -1 -3 6 4 6
-2 27 -14 46 -24 39 -36 47 -20 13 10 -21 10 -22 -4 -5 -8 11 -12 26 -9 35 4
9 2 13 -4 9 -6 -4 -10 1 -9 11 0 9 -4 16 -10 15 -7 -1 -11 5 -10 15 1 16 -28
17 -386 20 l-387 2 -54 -87z m448 70 l-380 -3 -24 -27 -23 -28 18 33 18 32
386 -2 385 -3 -380 -2z m-445 -100 c-11 -21 -30 -49 -42 -63 l-20 -25 17 29
c10 16 26 44 37 63 27 46 34 42 8 -4z m930 -83 c6 -11 8 -20 6 -20 -3 0 -10 9
-16 20 -6 11 -8 20 -6 20 3 0 10 -9 16 -20z m-1024 -67 c-8 -16 -22 -37 -31
-48 -16 -19 -17 -19 -3 5 8 14 20 35 27 48 6 12 14 22 17 22 2 0 -2 -12 -10
-27z m1093 -48 c13 -22 15 -31 6 -20 -18 22 -53 86 -38 70 6 -5 20 -28 32 -50z
m-1159 -62 c-11 -21 -30 -49 -42 -63 l-20 -25 17 29 c10 16 26 44 37 63 27 46
34 42 8 -4z m1219 -38 c13 -22 15 -31 6 -20 -18 22 -53 86 -38 70 6 -5 20 -28
32 -50z m60 -100 c13 -22 15 -31 6 -20 -18 22 -53 86 -38 70 6 -5 20 -28 32
-50z m-1373 -12 c-8 -16 -22 -37 -31 -48 -16 -19 -17 -19 -3 5 8 14 20 35 27
48 6 12 14 22 17 22 2 0 -2 -12 -10 -27z m-4593 -120 c62 -102 75 -126 52 -98
-9 11 -37 55 -62 97 l-47 78 -565 3 -566 2 567 3 567 2 54 -87z m6011 62 c9
-14 13 -25 8 -25 -5 0 -14 11 -20 25 -6 14 -10 25 -8 25 2 0 11 -11 20 -25z
m-7204 -15 c-6 -11 -13 -20 -16 -20 -2 0 0 9 6 20 6 11 13 20 16 20 2 0 0 -9
-6 -20z m5730 -20 c-6 -11 -13 -20 -16 -20 -2 0 0 9 6 20 6 11 13 20 16 20 2
0 0 -9 -6 -20z m-3178 -365 c119 -198 214 -363 212 -367 -3 -5 -179 -8 -392
-8 l-387 0 -175 -288 c-96 -158 -193 -317 -217 -354 l-43 -68 -49 0 c-27 0
-53 6 -59 13 -5 6 -28 48 -51 92 -23 44 -32 69 -21 55 11 -14 20 -29 20 -35 0
-5 12 4 27 20 l25 30 -22 -37 c-12 -21 -19 -38 -17 -38 8 0 297 479 297 492 0
22 -283 477 -293 471 -6 -3 -7 -1 -3 5 9 16 -43 104 -56 95 -7 -3 -8 -1 -4 5
8 13 -12 57 -21 48 -3 -3 0 -14 8 -23 12 -16 12 -17 -2 -5 -14 11 -34 -17
-158 -225 l-142 -236 148 -246 c168 -278 175 -291 169 -291 -2 0 -77 121 -166
268 l-161 269 147 244 c80 134 149 251 153 260 3 8 33 61 66 117 l60 102 445
-3 445 -2 217 -360z m4499 355 l-185 -5 -95 -157 c-53 -86 -100 -160 -105
-165 -12 -11 -12 -10 89 157 49 80 95 153 103 163 13 15 34 17 196 15 l181 -2
-184 -6z m-7110 -67 c-5 -10 -17 -27 -26 -38 -16 -19 -17 -19 -3 5 26 46 29
50 34 50 3 0 0 -8 -5 -17z m5819 -3 c6 -11 8 -20 6 -20 -3 0 -10 9 -16 20 -6
11 -8 20 -6 20 3 0 10 -9 16 -20z m30 -50 c6 -11 8 -20 6 -20 -3 0 -10 9 -16
20 -6 11 -8 20 -6 20 3 0 10 -9 16 -20z m2175 -331 c110 -183 200 -339 200
-348 0 -9 -90 -166 -200 -349 l-200 -332 -421 0 -421 0 -206 341 -206 342 48
76 47 76 126 3 126 3 47 74 c26 42 43 80 39 86 -4 7 -3 9 3 6 13 -8 206 310
197 325 -4 6 -3 8 4 4 6 -3 13 -2 17 4 4 7 -35 10 -113 10 l-119 0 -87 -145
c-48 -80 -89 -145 -92 -145 -3 0 -3 3 -1 8 102 169 152 251 163 270 l14 22
418 0 417 0 200 -331z m-8079 294 c-8 -16 -22 -37 -31 -48 -16 -19 -17 -19 -3
5 8 14 20 35 27 48 6 12 14 22 17 22 2 0 -2 -12 -10 -27z m5981 -88 c21 -42 1
-19 -26 30 -13 22 -15 31 -6 20 9 -11 23 -33 32 -50z m1243 35 c-6 -11 -13
-20 -16 -20 -2 0 0 9 6 20 6 11 13 20 16 20 2 0 0 -9 -6 -20z m-7284 -47 c-8
-16 -22 -37 -31 -48 -16 -19 -17 -19 -3 5 8 14 20 35 27 48 6 12 14 22 17 22
2 0 -2 -12 -10 -27z m1432 5 c-8 -13 -58 -96 -112 -185 -53 -90 -100 -163
-103 -163 -3 0 1 10 9 23 8 12 58 95 112 185 53 89 100 162 103 162 3 0 -1
-10 -9 -22z m5822 -8 c-6 -11 -13 -20 -16 -20 -2 0 0 9 6 20 6 11 13 20 16 20
2 0 0 -9 -6 -20z m-1159 -75 l10 -20 -16 20 c-9 11 -21 29 -26 40 l-10 20 16
-20 c9 -11 21 -29 26 -40z m-4530 -10 l10 -20 -16 20 c-9 11 -21 29 -26 40
l-10 20 16 -20 c9 -11 21 -29 26 -40z m5659 35 c-6 -11 -13 -20 -16 -20 -2 0
0 9 6 20 6 11 13 20 16 20 2 0 0 -9 -6 -20z m-7279 -39 c-25 -45 -114 -187
-124 -196 -11 -11 -9 -7 72 128 30 48 56 87 58 87 2 0 -1 -8 -6 -19z m6877
-13 c-8 -13 -48 -78 -88 -145 -41 -67 -76 -121 -78 -119 -4 4 168 286 175 286
3 0 -1 -10 -9 -22z m372 2 c-6 -11 -13 -20 -16 -20 -2 0 0 9 6 20 6 11 13 20
16 20 2 0 0 -9 -6 -20z m-1070 -20 c6 -11 8 -20 6 -20 -3 0 -10 9 -16 20 -6
11 -8 20 -6 20 3 0 10 -9 16 -20z m-4499 -65 l10 -20 -16 20 c-9 11 -21 29
-26 40 l-10 20 16 -20 c9 -11 21 -29 26 -40z m5539 35 c-6 -11 -13 -20 -16
-20 -2 0 0 9 6 20 6 11 13 20 16 20 2 0 0 -9 -6 -20z m-250 -40 c-6 -11 -13
-20 -16 -20 -2 0 0 9 6 20 6 11 13 20 16 20 2 0 0 -9 -6 -20z m-714 -52 c21
-35 44 -73 52 -85 8 -13 12 -23 9 -23 -3 0 -22 28 -43 63 -21 34 -44 72 -52
85 -8 12 -12 22 -9 22 3 0 22 -28 43 -62z m-4527 -23 c13 -22 15 -31 6 -20
-18 22 -53 86 -38 70 6 -5 20 -28 32 -50z m5209 23 c-8 -13 -27 -44 -42 -70
l-28 -47 109 -4 108 -3 -117 -1 -116 -1 45 74 c24 41 47 74 50 74 3 0 -1 -10
-9 -22z m202 -38 c-6 -11 -13 -20 -16 -20 -2 0 0 9 6 20 6 11 13 20 16 20 2 0
0 -9 -6 -20z m-7280 -40 c-6 -11 -13 -20 -16 -20 -2 0 0 9 6 20 6 11 13 20 16
20 2 0 0 -9 -6 -20z m1910 -10 c6 -11 8 -20 6 -20 -3 0 -10 9 -16 20 -6 11 -8
20 -6 20 3 0 10 -9 16 -20z m5340 0 c-6 -11 -13 -20 -16 -20 -2 0 0 9 6 20 6
11 13 20 16 20 2 0 0 -9 -6 -20z m-7280 -40 c-6 -11 -13 -20 -16 -20 -2 0 0 9
6 20 6 11 13 20 16 20 2 0 0 -9 -6 -20z m1419 -17 c-12 -21 -26 -42 -31 -47
-15 -18 -9 -34 48 -128 31 -51 58 -96 61 -100 2 -5 2 -8 -1 -8 -7 0 -126 199
-126 210 0 12 60 110 67 110 2 0 -5 -17 -18 -37z m578 -38 c21 -42 1 -19 -26
30 -13 22 -15 31 -6 20 9 -11 23 -33 32 -50z m4781 58 c-54 -2 -142 -2 -195 0
-54 1 -10 3 97 3 107 0 151 -2 98 -3z m-4727 -148 l10 -20 -16 20 c-9 11 -21
29 -26 40 l-10 20 16 -20 c9 -11 21 -29 26 -40z m-2131 15 c-6 -11 -13 -20
-16 -20 -2 0 0 9 6 20 6 11 13 20 16 20 2 0 0 -9 -6 -20z m-30 -50 c-6 -11
-13 -20 -16 -20 -2 0 0 9 6 20 6 11 13 20 16 20 2 0 0 -9 -6 -20z m2190 -10
c6 -11 8 -20 6 -20 -3 0 -10 9 -16 20 -6 11 -8 20 -6 20 3 0 10 -9 16 -20z
m-2201 -50 c11 -24 11 -24 -3 -6 -9 11 -16 24 -16 30 0 12 5 7 19 -24z m2190
-24 c-12 -20 -23 -35 -26 -32 -2 2 6 20 19 39 30 46 35 40 7 -7z m979 -18 c-8
-13 -83 -137 -167 -275 l-153 -253 -294 0 c-162 0 -294 3 -294 6 0 6 220 369
297 492 l33 52 296 0 296 0 -14 -22z m1033 -503 l317 -520 -25 -45 c-15 -25
-37 -62 -50 -82 l-23 -38 -398 -2 -397 -3 -269 -443 -269 -442 -249 2 -250 3
-319 524 -319 524 143 233 142 234 317 0 317 0 142 238 c79 130 158 261 176
290 l34 52 331 -2 332 -3 317 -520z m-2505 363 c37 -62 74 -123 82 -135 8 -13
12 -23 9 -23 -3 0 -36 51 -73 113 -37 61 -74 122 -82 135 -8 12 -12 22 -9 22
3 0 36 -51 73 -112z m449 85 c-10 -14 -26 -41 -37 -60 -22 -37 -35 -46 -17
-10 19 35 61 97 66 97 3 0 -3 -12 -12 -27z m-2065 -33 c6 -11 8 -20 6 -20 -3
0 -10 9 -16 20 -6 11 -8 20 -6 20 3 0 10 -9 16 -20z m30 -50 c6 -11 8 -20 6
-20 -3 0 -10 9 -16 20 -6 11 -8 20 -6 20 3 0 10 -9 16 -20z m1949 -57 c-12
-21 -27 -42 -32 -48 -11 -11 9 29 31 63 24 37 25 25 1 -15z m-1839 -123 c93
-153 102 -170 97 -170 -4 0 -76 117 -186 300 -8 14 -10 21 -4 15 7 -5 48 -71
93 -145z m1779 23 c-12 -21 -27 -42 -32 -48 -11 -11 9 29 31 63 24 37 25 25 1
-15z m-129 -213 c-6 -11 -13 -20 -16 -20 -2 0 0 9 6 20 6 11 13 20 16 20 2 0
0 -9 -6 -20z m-1503 -55 c21 -42 1 -19 -26 30 -13 22 -15 31 -6 20 9 -11 23
-33 32 -50z m1432 -62 c-12 -21 -27 -42 -32 -48 -11 -11 9 29 31 63 24 37 25
25 1 -15z m-1379 -23 c6 -11 8 -20 6 -20 -3 0 -10 9 -16 20 -6 11 -8 20 -6 20
3 0 10 -9 16 -20z m1325 -67 c-10 -14 -26 -41 -37 -60 -22 -37 -35 -46 -17
-10 19 35 61 97 66 97 3 0 -3 -12 -12 -27z m-1265 -33 c6 -11 8 -20 6 -20 -3
0 -10 9 -16 20 -6 11 -8 20 -6 20 3 0 10 -9 16 -20z m7374 -372 l207 -342
-207 -343 -207 -343 -340 0 -339 0 14 23 c63 98 90 148 85 160 -3 7 -113 192
-246 410 l-240 396 115 191 116 190 417 0 418 0 207 -342z m-6184 282 c-6 -11
-13 -20 -16 -20 -2 0 0 9 6 20 6 11 13 20 16 20 2 0 0 -9 -6 -20z m-1132 -15
c-3 -3 -9 2 -12 12 -6 14 -5 15 5 6 7 -7 10 -15 7 -18z m835 -2 c-149 -2 -397
-2 -550 0 -153 1 -30 2 272 2 303 0 428 -1 278 -2z m5097 -283 c0 -5 -43 -80
-96 -166 -52 -86 -94 -162 -92 -169 2 -7 109 -186 238 -398 221 -364 237 -386
266 -389 l31 -3 -167 -272 c-91 -150 -170 -277 -176 -283 -7 -7 -122 -9 -341
-8 l-330 3 94 155 c52 85 97 160 99 166 3 6 -147 260 -332 565 -185 305 -341
563 -346 575 -8 17 1 38 47 115 32 52 62 100 67 107 13 15 1038 18 1038 2z
m-2080 -95 c0 -2 -115 -194 -256 -425 l-256 -420 -375 0 -375 0 29 48 c15 27
131 218 258 425 l230 377 372 0 c205 0 373 -2 373 -5z m829 -31 l22 -37 -49
-81 c-27 -44 -118 -196 -204 -336 l-155 -255 281 -462 280 -463 168 -2 167 -3
-267 -437 -266 -438 -644 0 -644 0 14 22 c71 111 251 414 251 423 0 6 -134
233 -298 503 l-297 492 -305 0 -304 0 25 43 26 42 476 5 476 5 289 475 c159
261 298 490 309 508 l19 32 305 0 304 0 21 -36z m1549 -352 l221 -363 -51 -84
c-49 -83 -52 -85 -88 -85 l-38 0 -198 328 c-108 180 -201 334 -207 342 -6 11
9 45 59 128 37 62 70 109 74 105 4 -4 107 -171 228 -371z m-1134 -330 c186
-305 336 -557 334 -562 -2 -4 -46 -78 -98 -164 l-95 -156 -170 0 -170 1 -258
423 -258 424 183 301 c101 165 186 297 189 293 4 -4 158 -256 343 -560z"/>
<path d="M2706 4438 c-164 -259 -496 -823 -492 -835 3 -8 122 -206 263 -439
l257 -424 531 0 530 0 259 427 c142 235 260 434 262 443 2 8 -115 209 -259
445 l-262 430 -528 3 -527 2 -34 -52z m1289 -410 c131 -216 239 -399 239 -408
1 -8 -107 -194 -239 -413 l-239 -397 -490 2 -489 3 -243 400 c-226 370 -242
401 -230 420 8 12 108 176 222 366 114 189 218 361 231 382 l23 37 488 0 489
0 238 -392z"/>
<path d="M4176 3137 c-168 -277 -308 -510 -311 -518 -3 -9 120 -222 304 -525
l310 -509 629 -3 629 -2 309 507 c169 279 308 515 308 523 0 8 -139 243 -309
523 l-308 507 -628 0 -627 0 -306 -503z m1798 -43 c227 -374 287 -479 280
-494 -5 -10 -135 -225 -289 -479 l-280 -461 -580 3 -579 2 -288 474 c-159 261
-287 478 -286 481 2 4 131 219 288 478 l285 471 580 1 580 0 289 -476z"/>
<path d="M1389 3348 c-17 -29 -108 -179 -202 -332 -166 -275 -169 -280 -154
-305 15 -25 14 -29 -19 -81 -18 -30 -34 -61 -34 -68 0 -7 91 -163 203 -347
l202 -335 411 0 411 0 201 334 c111 184 202 340 202 348 0 8 -7 23 -15 34 -21
27 -18 49 10 94 14 22 25 45 24 52 0 7 -89 157 -197 333 l-197 320 -407 3
-406 2 -33 -52z m1020 -285 c135 -224 191 -323 187 -338 -3 -11 -19 -36 -37
-55 -17 -19 -26 -27 -19 -18 10 15 -14 60 -161 303 l-172 285 -412 0 -411 0
-155 -259 c-85 -143 -157 -260 -161 -260 -22 -2 8 55 183 344 l191 315 387 0
388 0 192 -317z m-1339 -423 c6 -11 8 -20 6 -20 -3 0 -10 9 -16 20 -6 11 -8
20 -6 20 3 0 10 -9 16 -20z m60 0 c6 -11 8 -20 6 -20 -3 0 -10 9 -16 20 -6 11
-8 20 -6 20 3 0 10 -9 16 -20z m30 -50 c6 -11 8 -20 6 -20 -3 0 -10 9 -16 20
-6 11 -8 20 -6 20 3 0 10 -9 16 -20z m30 -50 c6 -11 8 -20 6 -20 -3 0 -10 9
-16 20 -6 11 -8 20 -6 20 3 0 10 -9 16 -20z m-40 -30 c6 -11 8 -20 6 -20 -3 0
-10 9 -16 20 -6 11 -8 20 -6 20 3 0 10 -9 16 -20z m1310 0 c-6 -11 -13 -20
-16 -20 -2 0 0 9 6 20 6 11 13 20 16 20 2 0 0 -9 -6 -20z m-1240 -20 c6 -11 8
-20 6 -20 -3 0 -10 9 -16 20 -6 11 -8 20 -6 20 3 0 10 -9 16 -20z m1270 -20
c-6 -11 -13 -20 -16 -20 -2 0 0 9 6 20 6 11 13 20 16 20 2 0 0 -9 -6 -20z
m-1310 -10 c6 -11 8 -20 6 -20 -3 0 -10 9 -16 20 -6 11 -8 20 -6 20 3 0 10 -9
16 -20z m1250 0 c-6 -11 -13 -20 -16 -20 -2 0 0 9 6 20 6 11 13 20 16 20 2 0
0 -9 -6 -20z m-30 -50 c-6 -11 -13 -20 -16 -20 -2 0 0 9 6 20 6 11 13 20 16
20 2 0 0 -9 -6 -20z m30 -40 c-6 -11 -13 -20 -16 -20 -2 0 0 9 6 20 6 11 13
20 16 20 2 0 0 -9 -6 -20z m-1130 -10 c6 -11 8 -20 6 -20 -3 0 -10 9 -16 20
-6 11 -8 20 -6 20 3 0 10 -9 16 -20z m1070 0 c-6 -11 -13 -20 -16 -20 -2 0 0
9 6 20 6 11 13 20 16 20 2 0 0 -9 -6 -20z m-1110 -30 c6 -11 8 -20 6 -20 -3 0
-10 9 -16 20 -6 11 -8 20 -6 20 3 0 10 -9 16 -20z m1140 -10 c-6 -11 -13 -20
-16 -20 -2 0 0 9 6 20 6 11 13 20 16 20 2 0 0 -9 -6 -20z m-1070 -10 c6 -11 8
-20 6 -20 -3 0 -10 9 -16 20 -6 11 -8 20 -6 20 3 0 10 -9 16 -20z m-40 -30 c6
-11 8 -20 6 -20 -3 0 -10 9 -16 20 -6 11 -8 20 -6 20 3 0 10 -9 16 -20z m1030
0 c-6 -11 -13 -20 -16 -20 -2 0 0 9 6 20 6 11 13 20 16 20 2 0 0 -9 -6 -20z
m50 -10 c-6 -11 -13 -20 -16 -20 -2 0 0 9 6 20 6 11 13 20 16 20 2 0 0 -9 -6
-20z m-1010 -10 c6 -11 8 -20 6 -20 -3 0 -10 9 -16 20 -6 11 -8 20 -6 20 3 0
10 -9 16 -20z m980 -40 c-6 -11 -13 -20 -16 -20 -2 0 0 9 6 20 6 11 13 20 16
20 2 0 0 -9 -6 -20z m-950 -10 c6 -11 8 -20 6 -20 -3 0 -10 9 -16 20 -6 11 -8
20 -6 20 3 0 10 -9 16 -20z m-50 -10 c6 -11 8 -20 6 -20 -3 0 -10 9 -16 20 -6
11 -8 20 -6 20 3 0 10 -9 16 -20z m920 -20 c-6 -11 -13 -20 -16 -20 -2 0 0 9
6 20 6 11 13 20 16 20 2 0 0 -9 -6 -20z m50 -10 c-6 -11 -13 -20 -16 -20 -2 0
0 9 6 20 6 11 13 20 16 20 2 0 0 -9 -6 -20z m-940 -20 c6 -11 8 -20 6 -20 -3
0 -10 9 -16 20 -6 11 -8 20 -6 20 3 0 10 -9 16 -20z m860 -20 c-6 -11 -13 -20
-16 -20 -2 0 0 9 6 20 6 11 13 20 16 20 2 0 0 -9 -6 -20z m50 -10 c-6 -11 -13
-20 -16 -20 -2 0 0 9 6 20 6 11 13 20 16 20 2 0 0 -9 -6 -20z m-880 -20 c6
-11 8 -20 6 -20 -3 0 -10 9 -16 20 -6 11 -8 20 -6 20 3 0 10 -9 16 -20z m638
-37 c-115 -2 -301 -2 -415 0 -115 1 -21 2 207 2 228 0 322 -1 208 -2z"/>
<path d="M12266 2788 c-131 -216 -239 -397 -240 -404 -1 -6 107 -190 239 -407
l240 -396 148 -1 147 0 0 800 0 800 -147 0 -148 0 -239 -392z"/>
<path d="M2564 2146 l-241 -403 241 -402 241 -401 490 0 490 0 241 401 242
400 -242 405 -241 404 -490 0 -490 -1 -241 -403z"/>
<path d="M159 2126 c-84 -137 -154 -259 -157 -272 -3 -17 39 -93 153 -278
l157 -256 317 0 316 0 143 233 c78 127 151 246 162 262 l19 30 -159 260 -158
260 -321 5 -321 5 -151 -249z"/>
<path d="M11138 2288 c-60 -93 -328 -538 -328 -546 0 -5 76 -133 168 -283
l169 -274 344 0 344 0 168 278 169 279 -169 281 -169 282 -341 3 -341 2 -14
-22z"/>
<path d="M1165 1399 c-129 -212 -204 -346 -201 -356 4 -8 96 -165 207 -349
l200 -334 426 2 425 3 210 343 210 343 -53 87 c-29 48 -124 203 -212 345
l-159 257 -423 0 -423 0 -207 -341z"/>
<path d="M9851 1459 c-34 -55 -59 -105 -55 -110 3 -5 1 -8 -5 -7 -5 2 -66 -89
-135 -201 -124 -202 -125 -204 -110 -233 9 -16 20 -26 26 -22 6 4 8 3 4 -4 -8
-13 141 -258 155 -254 6 1 8 -2 4 -8 -9 -14 65 -131 78 -123 6 3 7 1 3 -5 -4
-7 16 -50 45 -97 l52 -85 383 0 382 0 87 140 c48 79 83 145 79 152 -4 6 -3 8
3 5 12 -8 147 209 138 222 -3 5 0 13 6 17 8 4 9 3 5 -4 -4 -7 -5 -12 -3 -12 2
0 19 23 36 52 l33 52 -21 35 c-11 20 -26 35 -32 33 -6 -1 -8 2 -4 8 8 12 -203
356 -216 352 -6 -1 -8 2 -5 7 4 5 -18 49 -47 98 l-53 88 -386 3 -386 2 -61
-101z m855 44 c61 -106 58 -100 39 -78 -9 11 -28 41 -43 68 l-27 47 -379 -2
-379 -3 -41 -67 c-23 -36 -45 -70 -50 -75 -6 -4 -3 3 5 17 9 14 31 51 50 83
l34 57 381 0 382 0 28 -47z m124 -203 c6 -11 8 -20 6 -20 -3 0 -10 9 -16 20
-6 11 -8 20 -6 20 3 0 10 -9 16 -20z m-1070 -20 c-6 -11 -13 -20 -16 -20 -2 0
0 9 6 20 6 11 13 20 16 20 2 0 0 -9 -6 -20z m1100 -30 c6 -11 8 -20 6 -20 -3
0 -10 9 -16 20 -6 11 -8 20 -6 20 3 0 10 -9 16 -20z m-1130 -20 c-6 -11 -13
-20 -16 -20 -2 0 0 9 6 20 6 11 13 20 16 20 2 0 0 -9 -6 -20z m1181 -65 l10
-20 -16 20 c-9 11 -21 29 -26 40 l-10 20 16 -20 c9 -11 21 -29 26 -40z m-1210
18 c-5 -10 -17 -27 -26 -38 -16 -19 -17 -19 -3 5 26 46 29 50 34 50 3 0 0 -8
-5 -17z m1258 -98 c13 -22 15 -31 6 -20 -18 22 -53 86 -38 70 6 -5 20 -28 32
-50z m-1313 8 c-8 -16 -22 -37 -31 -48 -16 -19 -17 -19 -3 5 8 14 20 35 27 48
6 12 14 22 17 22 2 0 -2 -12 -10 -27z m-76 -123 c-6 -11 -13 -20 -16 -20 -2 0
0 9 6 20 6 11 13 20 16 20 2 0 0 -9 -6 -20z m1478 -35 c-3 -3 -9 2 -12 12 -6
14 -5 15 5 6 7 -7 10 -15 7 -18z m-1488 -15 c6 -11 8 -20 6 -20 -3 0 -10 9
-16 20 -6 11 -8 20 -6 20 3 0 10 -9 16 -20z m1470 -20 c-6 -11 -13 -20 -16
-20 -2 0 0 9 6 20 6 11 13 20 16 20 2 0 0 -9 -6 -20z m-1370 -142 c26 -47 19
-51 -8 -5 -11 19 -27 47 -37 63 l-17 29 20 -25 c12 -14 31 -42 42 -62z m1279
-5 c-12 -21 -27 -42 -32 -48 -11 -11 9 29 31 63 24 37 25 25 1 -15z m-1218
-98 l10 -20 -16 20 c-9 11 -21 29 -26 40 l-10 20 16 -20 c9 -11 21 -29 26 -40z
m1170 18 c-5 -10 -17 -27 -26 -38 -16 -19 -17 -19 -3 5 26 46 29 50 34 50 3 0
0 -8 -5 -17z m-1091 -148 c0 -11 -14 7 -31 40 -7 13 -3 12 10 -5 11 -14 21
-29 21 -35z m999 -2 c-12 -21 -27 -42 -32 -48 -11 -11 9 29 31 63 24 37 25 25
1 -15z m-912 -138 c21 -42 1 -19 -26 30 -13 22 -15 31 -6 20 9 -11 23 -33 32
-50z m832 8 c-12 -21 -27 -42 -32 -48 -11 -11 9 29 31 63 24 37 25 25 1 -15z
m-413 -66 l379 -2 -386 -3 c-351 -2 -387 0 -393 14 -5 13 -4 14 7 6 10 -8 130
-13 393 -15z"/>
<path d="M0 590 l0 -590 578 0 577 1 57 95 57 95 -301 495 -302 494 -333 0
-333 0 0 -590z"/>
<path d="M11090 524 c-168 -277 -307 -509 -309 -515 -2 -6 10 -9 30 -7 33 3
41 15 324 480 l290 478 586 0 586 0 99 -162 99 -163 3 64 3 64 -80 131 -80
131 -623 2 -623 2 -305 -505z"/>
<path d="M2395 428 c-137 -226 -251 -415 -253 -420 -2 -4 11 -8 30 -8 33 1 35
4 268 388 l235 387 590 0 589 0 236 -387 235 -387 38 -1 c20 0 37 2 37 5 0 3
-114 192 -252 420 l-253 415 -625 0 -625 0 -250 -412z"/>
<path d="M7923 358 l-222 -353 1061 -3 c584 -1 1063 0 1066 2 2 3 -94 162
-214 355 l-219 351 -626 0 -625 0 -221 -352z"/>
</g>
</svg>
