<svg xmlns="http://www.w3.org/2000/svg" width="128" height="32" viewBox="0 0 33.867 8.467">
  <path d="M12.54 5.86l1.52-2.504q.18-.295.18-.376 0-.193-.465-.193l.036-.12h1.33l-.036.12q-.262.01-.422.13-.157.12-.416.547L12.76 5.942q-.376.622-.664.943-.288.32-.67.32-.344 0-.55-.183-.203-.183-.203-.383 0-.134.088-.232.088-.1.23-.1.268 0 .334.344.06.308.265.308.265 0 .55-.47l-.776-2.9q-.134-.517-.265-.64-.13-.128-.373-.147l.036-.12h1.653l-.036.12q-.533 0-.533.3 0 .075.05.268zm3.08-3.194h3.518l-.043.12q-.324.01-.465.147-.14.134-.272.583l-.802 2.752q-.085.3-.085.42 0 .275.507.295L17.6 8.4h-.12q.092-.32.092-.55 0-.262-.124-.452-.12-.2-.275-.242-.154-.052-.475-.052h-1.48q-.353 0-.625.118-.272.12-.497.422-.23.3-.37.756h-.12l.4-1.417q.373-.05.58-.23.2-.18.517-.733.3-.553.645-1.574.337-1.024.337-1.362 0-.173-.1-.226-.1-.052-.403-.072zm.782.226q-.62 2.756-1.558 3.986h1.348q.416 0 .547-.118.134-.12.35-.86l.864-3.008zm5.344 1.788l.285-.965q.13-.442.13-.632 0-.177-.13-.236-.128-.06-.353-.06l.026-.12h1.75l-.03.12q-.334 0-.478.144-.144.14-.265.553l-.353 1.195h.23q.383 0 .592-.108.213-.108.367-.324.154-.22.363-.677.252-.56.432-.756.18-.2.46-.2.213 0 .34.118.13.115.13.3 0 .147-.088.245-.088.098-.23.098-.15 0-.327-.177-.088-.085-.157-.085-.088 0-.147.082-.056.082-.18.38-.252.596-.5.893-.236.298-.553.396.154.072.265.353.02.043.04.085l.435.952q.216.468.33.592.118.124.4.144l-.04.12h-.916l-.753-1.672q-.15-.334-.262-.422-.1-.092-.3-.095l-.42 1.483q-.07.236-.07.324 0 .24.504.262l-.04.12H20.5l.026-.12q.353-.01.484-.14.13-.13.288-.664l.37-1.263h-.092q-.3 0-.386.046-.082.043-.357.367l-1.52 1.777h-.982l.036-.12q.187 0 .357-.108.17-.1.458-.46l.893-1.087q.232-.285.396-.393.167-.108.43-.13-.367-.18-.367-.648 0-.105.026-.4.023-.25.023-.34 0-.34-.134-.34-.07 0-.17.105-.16.167-.3.167-.115 0-.223-.098-.105-.1-.105-.252 0-.17.154-.28.154-.1.36-.1.262 0 .452.193.193.193.193.573 0 .124-.03.386-.03.26-.03.367 0 .288.167.42.167.128.53.128zm5.322-1.775L26.56 4.66h.416q.445 0 .645-.134.2-.137.344-.504h.12l-.455 1.6h-.13q.06-.203.06-.347 0-.14-.06-.226-.056-.085-.157-.124-.098-.043-.42-.043H26.5l-.43 1.47q-.062.213-.062.324 0 .085.082.15.056.046.278.046h.393q.638 0 1.02-.226.386-.226.7-.785h.12l-.42 1.234h-3.43l.043-.12q.255-.007.344-.046.13-.06.2-.15.088-.134.2-.563l.78-2.677q.092-.324.092-.494 0-.124-.088-.193-.085-.072-.337-.072h-.07l.04-.12h3.188l-.275 1.07h-.12q.023-.15.023-.252 0-.173-.085-.3-.1-.15-.324-.23-.157-.06-.723-.06zm2.972-.24h1.748q.687 0 1.028.298.34.295.34.72 0 .337-.216.655-.216.317-.64.517-.425.196-.92.196-.308 0-.782-.1l-.353 1.2q-.124.432-.124.57 0 .105.088.173.088.07.422.088l-.033.12h-1.764l.036-.12q.347 0 .48-.118.137-.12.295-.66l.733-2.527q.13-.455.13-.6 0-.115-.095-.2-.092-.075-.4-.092zm.612 2.068q.37.095.596.095.357 0 .648-.147.295-.147.458-.442.167-.295.167-.612 0-.33-.203-.524-.203-.193-.615-.193-.223 0-.54.056z"
    fill="#666666" />
  <path d="M9.21 1.772v.173q-.24 0-.387.09-.15.09-.284.332-.1.164-.284.782l-1.702 5.12h-.18L4.98 4.207l-1.383 4.06h-.162L1.62 2.994q-.203-.6-.257-.698-.1-.178-.248-.262-.153-.09-.42-.09v-.173h2.26v.173H2.85q-.24 0-.365.112-.126.112-.126.272 0 .164.198.754L3.76 6.647l1.013-3.03-.18-.534-.144-.426q-.095-.234-.212-.412-.06-.09-.144-.15Q3.98 2 3.868 1.973q-.086-.028-.27-.028v-.173h2.378v.173h-.162q-.252 0-.37.112-.117.112-.117.304 0 .24.203.834l1.17 3.45 1.162-3.498q.198-.58.198-.805 0-.108-.068-.2Q7.93 2.048 7.83 2q-.17-.066-.446-.066v-.173z"
    fill="#3875a2" />
  <path d="M6.148.302l.068-.178H8.55q.588 0 1.047.183.463.183.7.51.232.328.232.695 0 .564-.4 1.022-.405.453-1.326.67.593.222.873.588.28.367.28.805 0 .487-.25.93-.25.444-.646.7-.39.246-.945.362-.395.082-1.235.082H4.46l.063-.178q.376-.01.51-.072.193-.082.275-.217.116-.183.31-.84L6.8 1.397q.15-.502.15-.704 0-.178-.135-.28-.13-.106-.502-.106-.082 0-.154-.005zm.98 2.715q.314.01.453.01 1.003 0 1.5-.434.492-.44.492-1.095 0-.497-.3-.772-.3-.28-.955-.28-.174 0-.444.058zm-.95 3.222q.52.067.815.067.752 0 1.33-.453.584-.453.584-1.23 0-.593-.362-.926-.357-.333-1.158-.333-.154 0-.376.014z"
    fill="#666666" />
</svg>
