<?xml version="1.0" encoding="utf-8"?>
<!DOCTYPE svg PUBLIC "-//W3C//DTD SVG 1.1//EN" "http://www.w3.org/Graphics/SVG/1.1/DTD/svg11.dtd">
<svg version="1.1" xmlns="http://www.w3.org/2000/svg" xmlns:xlink="http://www.w3.org/1999/xlink" x="0" y="0" viewBox="0 0 1000 1000" enable-background="new 0 0 1000 1000" xml:space="preserve">
<metadata> Svg Vector Icons : http://www.onlinewebfonts.com/icon </metadata>
<g><g transform="translate(0.000000,511.000000) scale(0.100000,-0.100000)"><path d="M4753.1,4987.4c-551.1-183-992.4-790-1334.7-1834.1c-51.7-152.8-103.3-277.7-114.1-275.5c-124.9,28-574.8,96.9-736.2,114.1c-635,64.6-1242.1-25.8-1562.8-232.5c-759.9-495.1-566.1-1470.3,512.3-2576.7l230.3-239l-174.4-213.1C977.3-1005.6,676-1726.8,759.9-2219.7c51.7-307.8,230.3-555.4,501.6-697.4c99-53.8,118.4-73.2,139.9-148.5c32.3-120.5,163.6-266.9,292.8-327.2c139.9-64.6,348.7-68.9,477.9-10.8c107.6,49.5,239,176.5,277.7,269.1c28,66.7,36.6,68.9,219.6,94.7c103.3,15.1,307.8,58.1,454.2,92.6c146.4,36.6,266.9,62.4,271.2,60.3c2.2-4.3,47.4-124.8,96.9-266.9c286.3-798.6,663-1330.3,1091.4-1543.5c187.3-92.6,191.6-92.6,415.5-92.6c202.4,0,243.3,6.4,350.9,58.1c510.2,236.8,908.4,809.4,1211.9,1735c53.8,161.5,101.2,305.7,105.5,318.6c6.4,19.4,62.4,15,200.2-12.9c105.4-21.5,320.7-56,480-73.2c826.6-96.9,1459.5,23.7,1803.9,342.3c275.5,254,361.6,583.4,262.6,1001c-107.6,445.6-428.4,945-949.3,1474.6l-211,215.3L8425.5,484c596.3,740.5,893.4,1442.3,815.9,1935.2c-124.9,807.2-979.5,1076.3-2365.8,742.7c-144.2-36.6-266.9-62.4-269.1-58.1c-2.1,4.3-49.5,127-103.3,275.5c-53.8,148.5-112,299.2-124.8,333.7c-23.7,58.1-21.5,73.2,30.1,148.5c111.9,165.8,127,391.8,38.8,566.2c-58.1,109.8-213.1,251.9-316.4,286.3c-99,32.3-228.2,38.8-335.8,15.1c-66.7-12.9-88.2-6.5-161.4,51.7c-45.2,38.7-157.1,103.3-245.4,144.2c-142.1,68.9-183,79.6-355.2,84C4914.6,5013.2,4806.9,5004.6,4753.1,4987.4z M5319.3,4681.7c176.5-96.9,191.6-111.9,155-167.9c-146.4-232.5-142.1-490.8,12.9-693.2c118.4-155,363.8-247.6,546.8-206.7c71,15.1,99,15.1,111.9-4.3c38.8-62.4,213.1-561.8,202.3-585.5c-4.3-15.1-36.6-34.4-71-40.9c-135.6-34.5-727.6-282-1050.5-439.1l-344.4-167.9l-183,71c-243.2,96.9-768.5,271.2-962.2,320.7c-86.1,21.5-157.1,45.2-157.1,53.8c0,43.1,183,561.8,266.9,762c219.6,512.3,546.8,947.2,822.3,1093.5C4875.8,4787.2,5125.5,4787.2,5319.3,4681.7z M8361,3002.6c682.4-176.5,820.2-716.8,396.1-1560.7c-118.4-234.6-318.6-540.3-520.9-790c-86.1-109.8-163.6-200.2-167.9-200.2c-6.4,0-129.2,96.9-273.4,217.4c-146.4,118.4-381,294.9-520.9,391.8c-142.1,96.9-273.4,191.6-292.8,211c-25.8,23.7-40.9,88.3-51.7,200.2c-23.7,260.5-114.1,792.2-187.3,1095.7c-36.6,152.8-64.6,279.8-60.3,282c21.5,19.4,589.8,142.1,740.5,161.4c94.7,12.9,202.4,28,236.8,32.3C7790.5,3062.9,8229.6,3037.1,8361,3002.6z M2914.7,2690.5c161.4-25.8,305.7-56,320.7-64.6c21.5-12.9,17.2-73.2-28-294.9c-56-277.7-129.2-753.4-157.1-1022.5l-12.9-144.2l-230.3-189.4c-124.9-103.3-378.9-338-564-518.8l-338-329.4l-215.3,232.5c-488.7,525.3-747,930-848.2,1321.7c-142.1,564,131.3,914.9,809.4,1044C1887.9,2770.1,2548.8,2752.9,2914.7,2690.5z M6494.6,2522.6c51.7-217.4,142.1-716.8,172.2-957.9l12.9-105.5l-71,43.1c-260.5,161.4-516.6,301.4-936.4,510.2l-477.9,241.1l211,99c393.9,185.1,927.8,400.4,998.8,402.6C6432.2,2755.1,6451.6,2703.4,6494.6,2522.6z M3760.7,2496.7c208.8-60.3,645.8-204.5,775-256.2c60.3-23.7,58.1-25.8-193.7-178.7c-290.6-172.2-637.2-402.5-854.6-561.8c-79.7-58.1-152.8-101.2-159.3-92.6c-17.2,17.2,45.2,469.3,114.1,809.4c58.1,297.1,71,344.4,88.3,344.4C3536.9,2561.3,3640.2,2533.3,3760.7,2496.7z M5299.9,1915.5c385.3-178.7,747-370.3,1138.8-607.1c269.1-161.5,284.2-174.4,284.2-238.9c0-38.8,10.8-266.9,21.5-510.2c12.9-243.3,15.1-540.3,8.6-660.9c-12.9-200.2-19.4-219.6-60.3-230.3c-81.8-21.5-223.8-161.5-284.1-284.2c-51.7-107.6-56-133.4-45.2-290.6l10.8-170L6176-1216.6c-241.1-167.9-598.4-391.8-867.5-546.8c-150.7-86.1-211-109.8-247.6-96.9c-92.6,28-719,327.2-945,449.9c-391.8,213.1-815.9,471.4-826.6,505.9c-28,94.7-49.5,1063.4-32.3,1463.8c10.8,243.2,21.5,447.7,21.5,458.5c0,8.6,109.8,96.9,243.2,195.9c533.9,398.2,1326,882.6,1407.8,863.2C4953.3,2070.5,5121.2,1999.5,5299.9,1915.5z M7192.1,813.4c157.1-114.1,320.8-243.2,656.6-514.5c43-34.4,43-36.6-36.6-133.5c-43-53.8-185.1-195.9-316.4-316.5L7261-370.6l-129.2,38.8l-129.2,40.9v454.2c0,249.7-6.4,527.4-12.9,617.8c-8.6,92.6-8.6,165.8,0,165.8C7000.5,946.8,7090.9,886.6,7192.1,813.4z M3009.4,32c0-419.8-4.3-764.2-8.6-764.2c-38.8,0-865.4,648-882.6,693.2c-12.9,34.4,828.8,835.2,880.4,835.2C3005.1,796.1,3009.4,451.7,3009.4,32z M8595.6-463.2c508-620,708.2-1194.7,544.6-1562.8c-94.7-213.1-353-385.3-693.1-465c-258.3-60.3-949.3-53.8-1349.7,12.9c-167.9,25.9-316.4,58.2-331.5,66.7c-21.5,12.9-17.2,75.3,28,303.5c32.3,159.3,66.7,357.3,79.6,439.1c40.9,256.2,36.6,247.6,114.1,247.6c107.6,0,277.7,92.6,365.9,195.9c137.8,161.4,180.8,434.8,92.6,598.4c-25.8,47.4-12.9,64.6,307.9,381l335.8,331.5l191.6-198C8384.6-222.1,8526.7-379.2,8595.6-463.2z M2206.5-454.6c146.4-118.4,381-294.9,520.9-391.8c142.1-96.9,273.4-191.6,292.8-211c25.8-23.7,40.9-88.2,51.7-204.5c21.5-241.1,129.2-861.1,193.7-1125.8c30.1-122.7,51.7-230.4,45.2-239c-15.1-23.7-525.2-146.4-678.1-163.6l-118.4-12.9l-38.7,111.9c-75.3,215.3-314.3,387.5-531.7,387.5c-92.6,0-264.8-58.1-344.4-118.4c-66.7-49.5-178.7-189.4-198-251.9c-12.9-34.4-122.7,30.1-215.3,127c-318.6,329.4-215.3,942.9,284.2,1707.1c124.8,191.6,441.3,602.7,462.8,602.7C1939.6-237.1,2062.3-334,2206.5-454.6z M3655.2-1444.8c107.6-62.4,409-221.7,673.8-353l480.1-241.1l-318.6-146.4c-333.7-152.8-843.8-355.2-897.7-355.2c-47.4,0-191.6,660.9-258.3,1190.4l-12.9,105.5l71-43.1C3429.2-1311.3,3549.8-1382.4,3655.2-1444.8z M6613-1335l51.7-43.1l-38.8-249.7c-40.9-264.7-127-693.1-146.4-710.4c-12.9-12.9-368.1,88.3-703.9,204.5c-424.1,144.2-411.2,107.6-105.5,292.8c146.4,86.1,393.9,245.4,546.8,353c155,105.5,294.9,191.6,312.1,193.7C6546.3-1294.1,6585-1313.5,6613-1335z M5775.6-2400.5c183-62.4,402.5-131.3,488.7-152.9c180.8-45.2,176.5-6.4,45.2-406.8c-189.4-561.8-426.2-996.7-695.3-1270.1c-94.7-94.7-226-202.4-290.6-236.8c-107.6-58.1-137.8-64.6-322.9-64.6c-180.8,0-217.4,6.5-316.4,60.3c-260.5,135.6-568.3,514.5-768.5,942.9c-133.5,286.3-282,706.1-258.3,727.6c10.8,8.6,96.9,43.1,191.6,77.5c241.1,83.9,719,288.4,1016.1,437l249.7,127l163.6-64.6C5368.8-2258.5,5592.7-2338.1,5775.6-2400.5z" fill="#666666"/></g></g>
</svg>
